# xmcd CD database file
#
# Track frame offsets:
#	150
#	22275
#	40802
#	59522
#	80940
#	100560
#	120277
#	142462
#	161760
#	184077
#	204447
#	229637
#	244620
#	269377
#	289642
#
# Disc length: 4138 seconds
#
# Revision: 0
# Processed by: cddbd v1.5.1PL0 Copyright (c) Steve Scherf et al.
# Submitted via: CDex 1.51
#
DISCID=d910280f
DTITLE=media youth - Live at BLITZ +
DYEAR=1999
DGENRE=Rock
TTITLE0=ORANGE
TTITLE1=SWEET NUTS
TTITLE2=罪と罰
TTITLE3=Missing
TTITLE4=CLIMAX
TTITLE5=はかないほどのMOMENT
TTITLE6=Love MANIA
TTITLE7=poison
TTITLE8=BROKEN VIOLET
TTITLE9=Damageの甘い罠
TTITLE10=Lagoon
TTITLE11=SLIPPIN'FIRE
TTITLE12=XYZ
TTITLE13=キミの未来(REMASTERD VER.)
TTITLE14=Soul flyer(REMASTERD VER.)
EXTD=YEAR: 1999
EXTT0=
EXTT1=
EXTT2=
EXTT3=
EXTT4=
EXTT5=
EXTT6=
EXTT7=
EXTT8=
EXTT9=
EXTT10=
EXTT11=
EXTT12=
EXTT13=
EXTT14=
PLAYORDER=
